<svg width="80" height="80" viewBox="0 0 80 80" fill="none" xmlns="http://www.w3.org/2000/svg">
<rect x="2.1875" y="2.1875" width="75.625" height="75.625" rx="9.0625" stroke="#ff751a" stroke-width="4.375"/>
<path d="M24.1351 38.75C23.6151 38.75 23.1951 38.63 22.8751 38.39C22.5751 38.15 22.4251 37.86 22.4251 37.52V18.08C22.4251 17.66 22.6051 17.35 22.9651 17.15C23.3251 16.93 23.7151 16.82 24.1351 16.82H29.9551C30.9751 16.82 31.9451 16.97 32.8651 17.27C33.7851 17.55 34.5351 18.07 35.1151 18.83C35.6951 19.59 35.9851 20.68 35.9851 22.1C35.9851 23.32 35.7551 24.34 35.2951 25.16C34.8351 25.96 34.2151 26.53 33.4351 26.87C34.0551 27.09 34.5951 27.4 35.0551 27.8C35.5151 28.18 35.8751 28.69 36.1351 29.33C36.3951 29.95 36.5251 30.76 36.5251 31.76V32.39C36.5251 33.95 36.2551 35.2 35.7151 36.14C35.1951 37.06 34.4751 37.73 33.5551 38.15C32.6551 38.55 31.6451 38.75 30.5251 38.75H24.1351ZM26.3251 35.33H29.6851C30.6051 35.33 31.3251 35.07 31.8451 34.55C32.3651 34.03 32.6251 33.2 32.6251 32.06V31.58C32.6251 30.4 32.3651 29.58 31.8451 29.12C31.3251 28.64 30.6051 28.4 29.6851 28.4H26.3251V35.33ZM26.3251 25.34H29.6851C30.5051 25.34 31.1051 25.1 31.4851 24.62C31.8851 24.14 32.0851 23.52 32.0851 22.76C32.0851 22.22 31.9851 21.77 31.7851 21.41C31.5851 21.03 31.3051 20.74 30.9451 20.54C30.5851 20.34 30.1551 20.24 29.6551 20.24H26.3251V25.34Z" fill="#ff751a"/>
<path d="M29.2351 64.555C27.9151 64.555 26.7251 64.335 25.6651 63.895C24.6051 63.435 23.7551 62.705 23.1151 61.705C22.4951 60.685 22.1851 59.335 22.1851 57.655V49.345C22.1851 47.665 22.4951 46.325 23.1151 45.325C23.7551 44.305 24.5951 43.575 25.6351 43.135C26.6951 42.675 27.8951 42.445 29.2351 42.445C30.5551 42.445 31.7451 42.675 32.8051 43.135C33.8851 43.575 34.7351 44.305 35.3551 45.325C35.9751 46.325 36.2851 47.665 36.2851 49.345V57.655C36.2851 59.335 35.9751 60.685 35.3551 61.705C34.7351 62.705 33.8851 63.435 32.8051 63.895C31.7451 64.335 30.5551 64.555 29.2351 64.555ZM29.2351 61.135C30.2151 61.135 30.9851 60.855 31.5451 60.295C32.1051 59.735 32.3851 58.855 32.3851 57.655V49.345C32.3851 48.145 32.1051 47.265 31.5451 46.705C30.9851 46.145 30.2151 45.865 29.2351 45.865C28.2551 45.865 27.4851 46.145 26.9251 46.705C26.3851 47.265 26.1151 48.145 26.1151 49.345V57.655C26.1151 58.855 26.3851 59.735 26.9251 60.295C27.4851 60.855 28.2551 61.135 29.2351 61.135Z" fill="#ff751a"/>
<path d="M45.3851 38.75C44.9651 38.75 44.5751 38.65 44.2151 38.45C43.8551 38.23 43.6751 37.91 43.6751 37.49V18.05C43.6751 17.61 43.8751 17.3 44.2751 17.12C44.6951 16.92 45.1451 16.82 45.6251 16.82C46.1251 16.82 46.5751 16.92 46.9751 17.12C47.3751 17.3 47.5751 17.61 47.5751 18.05V35.33H54.9251C55.3251 35.33 55.6151 35.51 55.7951 35.87C55.9751 36.21 56.0651 36.6 56.0651 37.04C56.0651 37.46 55.9751 37.85 55.7951 38.21C55.6151 38.57 55.3251 38.75 54.9251 38.75H45.3851Z" fill="#ff751a"/>
<path d="M50.4851 64.555C49.1651 64.555 47.9751 64.335 46.9151 63.895C45.8551 63.435 45.0051 62.705 44.3651 61.705C43.7451 60.685 43.4351 59.335 43.4351 57.655V49.345C43.4351 47.665 43.7451 46.325 44.3651 45.325C45.0051 44.305 45.8451 43.575 46.8851 43.135C47.9451 42.675 49.1051 42.445 50.3651 42.445C51.7651 42.445 52.9951 42.675 54.0551 43.135C55.1351 43.595 55.9851 44.255 56.6051 45.115C57.2251 45.975 57.5351 47.005 57.5351 48.205C57.5351 48.945 57.3751 49.445 57.0551 49.705C56.7351 49.945 56.2451 50.065 55.5851 50.065C55.0651 50.065 54.6151 49.975 54.2351 49.795C53.8551 49.615 53.6551 49.295 53.6351 48.835C53.6151 48.355 53.5151 47.895 53.3351 47.455C53.1751 46.995 52.8751 46.615 52.4351 46.315C52.0151 46.015 51.3651 45.865 50.4851 45.865C49.5051 45.865 48.7351 46.155 48.1751 46.735C47.6351 47.295 47.3651 48.165 47.3651 49.345V57.655C47.3651 58.835 47.6351 59.715 48.1751 60.295C48.7351 60.855 49.5051 61.135 50.4851 61.135C51.4651 61.135 52.2351 60.855 52.7951 60.295C53.3551 59.715 53.6351 58.835 53.6351 57.655V55.915H51.2051C50.8251 55.915 50.5251 55.755 50.3051 55.435C50.1051 55.115 50.0051 54.765 50.0051 54.385C50.0051 54.005 50.1051 53.655 50.3051 53.335C50.5251 53.015 50.8251 52.855 51.2051 52.855H56.3051C56.7051 52.855 57.0051 52.985 57.2051 53.245C57.4251 53.485 57.5351 53.785 57.5351 54.145V57.655C57.5351 59.335 57.2251 60.685 56.6051 61.705C55.9851 62.705 55.1351 63.435 54.0551 63.895C52.9951 64.335 51.8051 64.555 50.4851 64.555Z" fill="#ff751a"/>
</svg>
